<svg width="126" height="24" viewBox="0 0 126 24" fill="none" xmlns="http://www.w3.org/2000/svg">
<path d="M8.47616 0C5.026 0 2.92954 1.77286 2.33055 5.25829L0.138262 17.7286C-0.556563 21.7085 1.39614 24 5.34945 24H17.2813C20.7434 24 22.8159 22.2271 23.4269 18.7417L25.6072 6.27136C26.302 2.29146 24.3493 0 20.396 0H8.47616Z" fill="#00DC00"></path>
<path d="M43.1435 19.5837C43.1435 18.3837 42.7335 17.131 42.1617 15.8219L37.5272 5.29279H40.6344L45.1335 15.9009L49.6589 5.29279H52.7661L44.2871 24H40.8789C42.2971 22.8263 43.1435 21.0809 43.1435 19.5837ZM52.0062 12.2182C52.0062 7.98997 54.8689 5.10094 59.0971 5.10094C63.3253 5.10094 66.2407 7.98997 66.2407 12.2182C66.2407 16.4464 63.378 19.3618 59.0971 19.3618C54.8162 19.3618 52.0062 16.4991 52.0062 12.2182ZM63.2388 12.2182C63.2388 9.54733 61.6288 7.5837 59.0934 7.5837C56.5579 7.5837 55.057 9.54733 55.057 12.2182C55.057 14.889 56.6369 16.8828 59.0934 16.8828C61.5498 16.8828 63.2388 14.9455 63.2388 12.2182ZM67.5761 13.0382V5.29279H70.5216V12.711C70.5216 15.4646 71.6125 16.8301 73.7115 16.8301C75.9761 16.8301 77.3379 15.1411 77.3379 12.2219V5.29279H80.257V19.2H77.6651L77.3642 17.4545C76.4915 18.5191 75.1824 19.3618 73.057 19.3618C70.0852 19.3618 67.5761 17.7818 67.5761 13.0345V13.0382ZM81.5247 12.9818H84.4965C84.6056 14.9455 85.7793 16.8527 89.2137 16.8527C90.9028 16.8527 93.2238 16.1154 93.2238 13.9335C93.2238 12.3799 92.2419 11.5599 88.9166 10.9354C85.4821 10.2809 81.9347 9.38182 81.9347 5.58997C81.9347 2.64451 84.1692 0 88.6984 0C92.4601 0 95.6802 2.12539 95.8683 5.86081H92.9492C92.7573 3.89718 91.1774 2.50533 88.6946 2.50533C86.3774 2.50533 84.9592 3.70533 84.9592 5.36802C84.9592 6.75987 86.0501 7.7116 89.7329 8.33981C94.6683 9.18621 96.1956 10.8489 96.1956 13.5197C96.1956 17.3379 92.8702 19.3542 89.1874 19.3542C84.9893 19.3542 81.6075 17.0107 81.5247 12.9743V12.9818ZM97.2865 12.2483C97.2865 7.9674 100.066 5.13103 104.186 5.13103C108.305 5.13103 110.975 7.66646 110.975 11.7555C110.975 12.0828 110.923 12.4928 110.866 12.8727H100.367V13.0909C100.45 15.4646 101.947 16.9918 104.268 16.9918C106.096 16.9918 107.432 16.0928 107.812 14.5392H110.731C110.268 17.2665 107.921 19.3655 104.434 19.3655C100.07 19.3655 97.2902 16.5292 97.2902 12.2483H97.2865ZM104.212 7.50094C102.331 7.50094 100.721 8.72727 100.476 10.7172H107.947C107.676 8.61818 106.228 7.50094 104.212 7.50094ZM111.984 12.2483C111.984 7.9674 114.764 5.13103 118.883 5.13103C123.002 5.13103 125.673 7.66646 125.673 11.7555C125.673 12.0828 125.62 12.4928 125.564 12.8727H115.065V13.0909C115.147 15.4646 116.644 16.9918 118.965 16.9918C120.794 16.9918 122.129 16.0928 122.509 14.5392H125.428C124.965 17.2665 122.618 19.3655 119.131 19.3655C114.767 19.3655 111.987 16.5292 111.987 12.2483H111.984ZM118.909 7.50094C117.028 7.50094 115.418 8.72727 115.174 10.7172H122.644C122.374 8.61818 120.925 7.50094 118.909 7.50094Z" fill="#141414"></path>
</svg>