<svg width="24" height="24" viewBox="0 0 24 24" fill="none" xmlns="http://www.w3.org/2000/svg">
<path fill-rule="evenodd" clip-rule="evenodd" d="M8 12C7.44772 12 7 11.5523 7 11C7 10.4477 7.44772 10 8 10C8.55228 10 9 10.4477 9 11C9 11.5523 8.55228 12 8 12Z" fill="black" fill-opacity="0.8"/>
<path fill-rule="evenodd" clip-rule="evenodd" d="M12 12C11.4477 12 11 11.5523 11 11C11 10.4477 11.4477 10 12 10C12.5523 10 13 10.4477 13 11C13 11.5523 12.5523 12 12 12Z" fill="black" fill-opacity="0.8"/>
<path fill-rule="evenodd" clip-rule="evenodd" d="M16 12C15.4477 12 15 11.5523 15 11C15 10.4477 15.4477 10 16 10C16.5523 10 17 10.4477 17 11C17 11.5523 16.5523 12 16 12Z" fill="black" fill-opacity="0.8"/>
<path fill-rule="evenodd" clip-rule="evenodd" d="M8 16C7.44772 16 7 15.5523 7 15C7 14.4477 7.44772 14 8 14C8.55228 14 9 14.4477 9 15C9 15.5523 8.55228 16 8 16Z" fill="black" fill-opacity="0.8"/>
<path fill-rule="evenodd" clip-rule="evenodd" d="M12 16C11.4477 16 11 15.5523 11 15C11 14.4477 11.4477 14 12 14C12.5523 14 13 14.4477 13 15C13 15.5523 12.5523 16 12 16Z" fill="black" fill-opacity="0.8"/>
<path d="M8 7C7.44772 7 7 6.55228 7 6V3C7 2.44772 7.44772 2 8 2C8.55228 2 9 2.44772 9 3V6C9 6.55228 8.55228 7 8 7Z" fill="black" fill-opacity="0.8"/>
<path d="M6 4V6H5C4.44772 6 4 6.44772 4 7V18C4 18.5523 4.44772 19 5 19H19C19.5523 19 20 18.5523 20 18V7C20 6.44771 19.5523 6 19 6H18V4H19C20.6569 4 22 5.34315 22 7V18C22 19.6569 20.6569 21 19 21H5C3.34315 21 2 19.6569 2 18V7C2 5.34315 3.34315 4 5 4H6Z" fill="black" fill-opacity="0.8"/>
<path d="M17 6V3C17 2.44772 16.5523 2 16 2C15.4477 2 15 2.44772 15 3V6C15 6.55228 15.4477 7 16 7C16.5523 7 17 6.55228 17 6Z" fill="black" fill-opacity="0.8"/>
<path d="M14 6H10V4H14V6Z" fill="black" fill-opacity="0.8"/>
</svg>
