<svg width="24" height="24" viewBox="0 0 24 24" fill="none" xmlns="http://www.w3.org/2000/svg">
<path fill-rule="evenodd" clip-rule="evenodd" d="M10.5831 5.45035C10.9919 5.84068 11.341 6.25701 11.6511 6.62688C11.7451 6.73903 11.8356 6.8469 11.923 6.94849C12.0132 6.85219 12.1075 6.74898 12.2062 6.64091C12.5273 6.28939 12.8954 5.8865 13.3207 5.50305C14.2002 4.70993 15.3241 4 16.7826 4C20.0196 4 22 6.43509 22 9.42744C22 10.675 21.5538 11.8494 20.709 12.8225L12.008 22C12.008 22 11.4551 21.4183 10.6282 20.5484C8.19244 17.9855 3.37918 12.9206 3.31982 12.8534C2.46114 11.8653 2 10.659 2 9.42744C2 6.43509 4.03216 4 7.27008 4C8.71987 4 9.76968 4.67371 10.5831 5.45035ZM4.81884 11.5293C4.26597 10.8876 4 10.1461 4 9.42744C4 7.39785 5.2734 6 7.27008 6C8.47785 6 9.14901 6.78399 10.1825 7.99128C10.2555 8.07655 10.3303 8.16393 10.4073 8.25329L11.8606 9.94154L13.383 8.31537C13.46 8.23312 13.5356 8.15203 13.6098 8.0723C14.7141 6.88699 15.5404 6 16.7826 6C17.8675 6 18.6273 6.39297 19.13 6.94207C19.6516 7.51185 20 8.36773 20 9.42744C20 10.1648 19.7469 10.8668 19.2242 11.4817L12.0061 19.095L9.14355 16.0828C8.06254 14.9451 6.9792 13.8048 6.1612 12.9433C5.76312 12.5241 5.44039 12.184 5.21112 11.9423C4.96947 11.6877 4.83164 11.5424 4.81884 11.5293Z" fill="black" fill-opacity="0.8"/>
</svg>
