<svg width="24" height="24" viewBox="0 0 24 24" fill="none" xmlns="http://www.w3.org/2000/svg">
<path d="M17.8293 9C17.4175 10.1652 16.3062 11 15 11C13.6938 11 12.5825 10.1652 12.1707 9H3.59998C3.04769 9 2.59998 8.55228 2.59998 8C2.59998 7.44772 3.04769 7 3.59998 7H12.1707C12.5825 5.83481 13.6938 5 15 5C16.3062 5 17.4175 5.83481 17.8293 7H20.4C20.9523 7 21.4 7.44772 21.4 8C21.4 8.55228 20.9523 9 20.4 9H17.8293Z" fill="black" fill-opacity="0.8"/>
<path d="M9 20C10.3062 20 11.4175 19.1652 11.8293 18H20.4C20.9523 18 21.4 17.5523 21.4 17C21.4 16.4477 20.9523 16 20.4 16H11.8293C11.4175 14.8348 10.3062 14 9 14C7.69378 14 6.58254 14.8348 6.17071 16H3.59998C3.04769 16 2.59998 16.4477 2.59998 17C2.59998 17.5523 3.04769 18 3.59998 18H6.17071C6.58254 19.1652 7.69378 20 9 20Z" fill="black" fill-opacity="0.8"/>
</svg>
