<svg width="24" height="24" viewBox="0 0 24 24" fill="none" xmlns="http://www.w3.org/2000/svg">
<path d="M13.1509 19.02V10.9707H11.1509V19.02H13.1509Z" fill="black" fill-opacity="0.8"/>
<path d="M13.8018 7.34912C13.8018 8.26088 13.0626 9 12.1509 9C11.2391 9 10.5 8.26088 10.5 7.34912C10.5 6.43737 11.2391 5.69824 12.1509 5.69824C13.0626 5.69824 13.8018 6.43737 13.8018 7.34912Z" fill="black" fill-opacity="0.8"/>
<path fill-rule="evenodd" clip-rule="evenodd" d="M12 21C16.9706 21 21 16.9706 21 12C21 7.02944 16.9706 3 12 3C7.02944 3 3 7.02944 3 12C3 16.9706 7.02944 21 12 21ZM12 23C18.0751 23 23 18.0751 23 12C23 5.92487 18.0751 1 12 1C5.92487 1 1 5.92487 1 12C1 18.0751 5.92487 23 12 23Z" fill="black" fill-opacity="0.8"/>
</svg>
