<svg width="24" height="24" viewBox="0 0 24 24" fill="none" xmlns="http://www.w3.org/2000/svg">
<path fill-rule="evenodd" clip-rule="evenodd" d="M12 3.8999C9.27314 3.8999 7 6.20455 7 9.12604C7 9.76729 7.29964 10.8173 7.85907 12.1453C8.40183 13.4338 9.13273 14.8567 9.87424 16.192C10.614 17.5241 11.3551 18.7525 11.9119 19.6489C11.9418 19.697 11.9712 19.7442 12 19.7904C12.0288 19.7442 12.0582 19.697 12.0881 19.6489C12.6449 18.7525 13.386 17.5241 14.1258 16.192C14.8673 14.8567 15.5982 13.4338 16.1409 12.1453C16.7004 10.8173 17 9.76729 17 9.12604C17 6.20455 14.7269 3.8999 12 3.8999ZM12 21.6499C11.1655 22.201 11.1654 22.2007 11.1654 22.2007L11.1468 22.1725L11.095 22.0933C11.05 22.0242 10.9843 21.9231 10.9011 21.7937C10.7346 21.5347 10.4974 21.162 10.2131 20.7043C9.64492 19.7897 8.88601 18.532 8.12576 17.1629C7.36727 15.7971 6.59817 14.3039 6.01593 12.9218C5.45036 11.5792 5 10.2041 5 9.12604C5 5.17037 8.09948 1.8999 12 1.8999C15.9005 1.8999 19 5.17037 19 9.12604C19 10.2041 18.5496 11.5792 17.9841 12.9218C17.4018 14.3039 16.6327 15.7971 15.8742 17.1629C15.114 18.532 14.3551 19.7897 13.7869 20.7043C13.5026 21.162 13.2654 21.5347 13.0989 21.7937C13.0157 21.9231 12.95 22.0242 12.905 22.0933L12.8532 22.1725L12.8349 22.2003C12.8349 22.2003 12.8345 22.201 12 21.6499ZM12 21.6499L12.8349 22.2003L12 23.4645L11.1654 22.2007L12 21.6499Z" fill="black" fill-opacity="0.8"/>
<path fill-rule="evenodd" clip-rule="evenodd" d="M13.875 8.8999C13.875 9.93541 13.0355 10.7749 12 10.7749C10.9645 10.7749 10.125 9.93541 10.125 8.8999C10.125 7.86439 10.9645 7.0249 12 7.0249C13.0355 7.0249 13.875 7.86439 13.875 8.8999Z" fill="black" fill-opacity="0.8"/>
</svg>
