<svg width="24" height="24" viewBox="0 0 24 24" fill="none" xmlns="http://www.w3.org/2000/svg">
<path fill-rule="evenodd" clip-rule="evenodd" d="M19.9998 16.7057H19.9968C19.9958 18.0191 19.0021 19.3374 17.4617 19.898C15.5785 20.5832 13.5928 19.8767 13.0261 18.3199C12.4595 16.763 13.5266 14.9448 15.4099 14.2594C16.3047 13.9337 17.2218 13.9258 17.9998 14.1705V5.48788C17.9868 5.49257 17.9739 5.49881 17.9607 5.50351C17.0416 5.83173 15.7333 6.22435 14.1638 6.48593C12.629 6.74173 11.3475 6.86978 10.4461 6.93417C10.2851 6.94567 10.1359 6.95373 9.99976 6.96152V18.4166C10.1535 19.8196 9.12671 21.2925 7.47144 21.8951L7.29371 21.9547C5.45975 22.5367 3.5751 21.8282 3.02613 20.3199C2.45953 18.763 3.53149 16.9437 5.41969 16.2564L5.59547 16.1959C6.4301 15.9309 7.27481 15.9363 7.99976 16.1598V4.9996H9.01539C9.028 4.9995 9.04807 4.99906 9.07496 4.99863C9.12993 4.99774 9.21476 4.99647 9.32594 4.99277C9.54847 4.98535 9.87962 4.9703 10.3035 4.94003C11.1519 4.87943 12.3709 4.75741 13.8357 4.51328C15.2658 4.2749 16.458 3.91743 17.2888 3.6207C17.7036 3.47257 18.0268 3.33936 18.2429 3.2457C18.3508 3.19894 18.4319 3.16175 18.4841 3.1373C18.5102 3.12511 18.5293 3.11648 18.5408 3.11093C18.5465 3.10817 18.5505 3.10605 18.5525 3.10507L18.5535 3.1041L19.9998 2.38144V16.7057ZM7.46851 18.0875C7.12612 17.9664 6.63549 17.9427 6.10328 18.1363C5.57072 18.3302 5.20951 18.6641 5.02515 18.9771C4.84363 19.2855 4.85838 19.5081 4.90504 19.6363C4.95174 19.7645 5.08354 19.9446 5.42066 20.0641C5.76306 20.1853 6.25444 20.2089 6.78687 20.0152C7.31912 19.8214 7.67962 19.4873 7.86402 19.1744C8.04563 18.866 8.0308 18.6434 7.98414 18.5152C7.93741 18.387 7.80569 18.2069 7.46851 18.0875ZM17.4519 16.0924C17.1113 15.9712 16.6233 15.9469 16.0945 16.1393C15.5656 16.3318 15.2063 16.6643 15.0232 16.9762C14.8433 17.283 14.8577 17.5063 14.905 17.6363C14.9525 17.7665 15.0853 17.9467 15.4207 18.066C15.7613 18.1871 16.2493 18.2106 16.7781 18.0182C17.3068 17.8257 17.6653 17.494 17.8484 17.1822C18.0286 16.8753 18.0139 16.6522 17.9666 16.5221C17.9192 16.392 17.7872 16.2117 17.4519 16.0924Z" fill="black" fill-opacity="0.8"/>
</svg>
