<svg width="24" height="24" viewBox="0 0 24 24" fill="none" xmlns="http://www.w3.org/2000/svg">
<mask id="mask0_95_4925" style="mask-type:alpha" maskUnits="userSpaceOnUse" x="0" y="0" width="24" height="24">
<rect width="24" height="24" fill="#323232"/>
</mask>
<g mask="url(#mask0_95_4925)">
<path fill-rule="evenodd" clip-rule="evenodd" d="M11.824 6.10009C15.374 6.04093 18.3113 8.86899 18.3705 12.4233L18.3706 12.4316V17.69H5.50077V12.638C5.44635 9.09182 8.27248 6.15929 11.824 6.10009ZM16.3706 12.4487C16.3256 10.0067 14.3045 8.05903 11.8573 8.09982C9.41165 8.14058 7.4598 10.1634 7.50063 12.6133L7.50077 12.6217V15.69H16.3706V12.4487Z" fill="#323232"/>
<path fill-rule="evenodd" clip-rule="evenodd" d="M11.2344 18.3035V16.97H9.23438V18.31L9.23443 18.3206C9.2505 19.8308 10.5108 21.0056 11.985 20.9899C13.478 20.9741 14.6795 19.741 14.6543 18.2407V16.97H12.6543V18.2605L12.6545 18.271C12.6628 18.6654 12.3468 18.986 11.9637 18.99C11.5594 18.9943 11.2406 18.6716 11.2344 18.3035Z" fill="#323232"/>
<path fill-rule="evenodd" clip-rule="evenodd" d="M14.1997 5H9.67969V3H14.1997V5Z" fill="#323232"/>
</g>
</svg>
