<svg width="24" height="24" viewBox="0 0 24 24" fill="none" xmlns="http://www.w3.org/2000/svg">
<path d="M7.72266 6.00684C9.06093 5.46422 10.5005 5.16309 11.999 5.16309C16.6458 5.16317 20.7188 8.00219 22.999 12.2607C21.9476 14.2252 20.5143 15.8837 18.8223 17.1035L22.415 20.6963L21.2881 21.8242L9.48242 10.0186L2.5918 3.12695L3.71875 2L7.72266 6.00684ZM7.49219 9.4082C6.96646 10.2347 6.65921 11.2103 6.65918 12.2617C6.65918 15.2108 9.0519 17.6033 12.001 17.6035C13.0525 17.6035 14.0289 17.2944 14.8555 16.7715L16.5078 18.4248C15.105 19.0292 13.5865 19.3613 12.001 19.3613C7.35374 19.3612 3.28006 16.521 1 12.2617C2.0908 10.2263 3.58949 8.5146 5.36621 7.2832L7.49219 9.4082ZM13.4072 15.3232C12.9799 15.5229 12.5042 15.6357 12.001 15.6357C10.1371 15.6356 8.62794 14.1256 8.62793 12.2617C8.62793 11.7586 8.74277 11.2837 8.93945 10.8564L13.4072 15.3232ZM12.001 6.91992C11.0342 6.91999 10.132 7.18126 9.35059 7.63086L10.8232 9.10449L11.1045 9.0127C11.3901 8.93243 11.6899 8.8877 12.002 8.8877C12.6989 8.88776 13.3463 9.09919 13.8838 9.46094C14.7835 10.0667 15.375 11.095 15.375 12.2617C15.375 12.6778 15.2959 13.0712 15.1582 13.4395L16.6318 14.9131C17.0817 14.1315 17.3438 13.2289 17.3438 12.2617C17.3437 10.4187 16.409 8.79317 14.9883 7.83301C14.9516 7.80825 14.9142 7.78364 14.877 7.75977C14.0467 7.22823 13.0595 6.91992 12.001 6.91992Z" fill="black" fill-opacity="0.8"/>
</svg>
