<svg width="24" height="24" viewBox="0 0 24 24" fill="none" xmlns="http://www.w3.org/2000/svg">
<path d="M12 4.70599C16.6467 4.70599 20.7201 7.55279 23 11.8232C20.7202 16.0938 16.6468 18.9413 12 18.9413C7.35318 18.9413 3.27984 16.0938 1 11.8232C3.27987 7.55279 7.35331 4.70599 12 4.70599ZM12 6.46771C9.05126 6.46771 6.65943 8.8664 6.65918 11.8232C6.65918 14.7802 9.05111 17.1796 12 17.1796C14.9489 17.1796 17.3408 14.7802 17.3408 11.8232C17.3406 8.8664 14.9487 6.46771 12 6.46771ZM12 8.58783C13.7867 8.58783 15.2352 10.0365 15.2354 11.8232C15.2354 13.61 13.7868 15.0585 12 15.0585C10.2132 15.0585 8.76465 13.61 8.76465 11.8232C8.76483 10.0365 10.2133 8.58784 12 8.58783Z" fill="black" fill-opacity="0.8"/>
</svg>
