<svg width="24" height="24" viewBox="0 0 24 24" fill="none" xmlns="http://www.w3.org/2000/svg">
<path fill-rule="evenodd" clip-rule="evenodd" d="M4 20C4 17.2266 6.27022 15 9.04762 15H15.119C17.8965 15 20.1667 17.2266 20.1667 20V21H18.1667H17C15 21 15.6952 21 14 21H12C10.3048 21 12 21 9.04762 21H6H4V20Z" fill="black" fill-opacity="0.8"/>
<path fill-rule="evenodd" clip-rule="evenodd" d="M7 8C7 5.23858 9.23858 3 12 3C14.7614 3 17 5.23858 17 8C17 10.7614 14.7614 13 12 13C9.23858 13 7 10.7614 7 8Z" fill="black" fill-opacity="0.8"/>
</svg>
