<svg width="24" height="24" viewBox="0 0 24 24" fill="none" xmlns="http://www.w3.org/2000/svg">
<path d="M15.1191 15C17.8965 15 20.167 17.2266 20.167 20V21H18.167V20C18.167 18.3534 16.8143 17 15.1191 17H9.04785C7.35264 17 6 18.3534 6 20V21H4V20C4 17.2266 6.27045 15 9.04785 15H15.1191ZM12 3C14.7614 3 17 5.23858 17 8C17 10.7614 14.7614 13 12 13C9.23858 13 7 10.7614 7 8C7 5.23858 9.23858 3 12 3ZM12 5C10.3431 5 9 6.34315 9 8C9 9.65685 10.3431 11 12 11C13.6569 11 15 9.65685 15 8C15 6.34315 13.6569 5 12 5Z" fill="black" fill-opacity="0.8"/>
</svg>
