<svg width="24" height="24" viewBox="0 0 24 24" fill="none" xmlns="http://www.w3.org/2000/svg">
<path d="M12.0001 10.0002C10.8955 10.0002 10.0001 10.8957 10.0001 12.0002C10.0001 13.1048 10.8955 14.0002 12.0001 14.0002C13.1047 14.0002 14.0001 13.1048 14.0001 12.0002C14.0001 10.8957 13.1047 10.0002 12.0001 10.0002Z" fill="black" fill-opacity="0.8"/>
<path fill-rule="evenodd" clip-rule="evenodd" d="M10.0727 2.66564L9.79049 1.81073L8.93568 2.09326C7.52305 2.56016 6.25928 3.32867 5.19802 4.32654L4.58039 4.90729L5.12323 5.55849C5.70577 6.25732 5.83245 7.27668 5.36929 8.11051C4.89689 8.9395 4.00095 9.31888 3.13777 9.1532L2.26518 8.98571L2.08651 9.85608C1.94362 10.5521 1.8501 11.3002 1.8501 12.059C1.8501 12.8077 1.92923 13.5603 2.08988 14.2776L2.28285 15.1393L3.14806 14.9628C3.99168 14.7906 4.89543 15.1654 5.36831 16.0057C5.83263 16.8399 5.70618 17.8602 5.12323 18.5595L4.58039 19.2107L5.19802 19.7915C6.25928 20.7893 7.52305 21.5579 8.93568 22.0248L9.78548 22.3056L10.0711 21.4574C10.3708 20.5671 11.1526 19.9734 12.0524 19.9734C12.9537 19.9734 13.7442 20.5805 14.0321 21.4524L14.3144 22.3073L15.1692 22.0248C16.5818 21.5579 17.8456 20.7893 18.9068 19.7915L19.5245 19.2107L18.9816 18.5595C18.3984 17.8598 18.2721 16.8388 18.7373 16.0044C19.195 15.1834 20.0981 14.798 20.9671 14.9648L21.8397 15.1323L22.0183 14.2619C22.1612 13.5659 22.2547 12.8178 22.2547 12.059C22.2547 11.3103 22.1756 10.5577 22.015 9.84038L21.822 8.97869L20.9568 9.15524C20.1131 9.32739 19.2093 8.95262 18.7365 8.11217C18.2722 7.27803 18.3987 6.25778 18.9816 5.55849L19.5245 4.90729L18.9068 4.32654C17.8456 3.32867 16.5818 2.56016 15.1692 2.09326L14.3194 1.81239L14.0338 2.66062C13.734 3.55091 12.9522 4.14462 12.0524 4.14462C11.1512 4.14462 10.3606 3.53753 10.0727 2.66564ZM6.93977 8.99006C7.62718 7.75705 7.59637 6.31615 6.99777 5.14994C7.53892 4.72405 8.13024 4.36616 8.7635 4.08625C9.447 5.18929 10.6521 5.94462 12.0524 5.94462C13.4571 5.94462 14.6547 5.19336 15.34 4.08566C15.9738 4.36565 16.5655 4.72375 17.1071 5.14994C16.5085 6.31615 16.4777 7.75705 17.1651 8.99006L17.1665 8.99266C17.861 10.2287 19.0957 10.9381 20.3895 10.9928C20.4328 11.3424 20.4547 11.7 20.4547 12.059C20.4547 12.415 20.4292 12.7746 20.3836 13.1312C19.0887 13.1922 17.8528 13.8944 17.1651 15.128C16.4777 16.361 16.5085 17.8019 17.1071 18.9681C16.5659 19.394 15.9746 19.7519 15.3413 20.0318C14.6578 18.9287 13.4527 18.1734 12.0524 18.1734C10.6477 18.1734 9.45014 18.9246 8.76484 20.0324C8.13107 19.7524 7.53931 19.3943 6.99777 18.9681C7.59638 17.8019 7.62718 16.361 6.93978 15.128L6.93832 15.1254C6.24389 13.8894 5.0091 13.1799 3.71533 13.1252C3.67199 12.7756 3.6501 12.418 3.6501 12.059C3.6501 11.7031 3.67565 11.3435 3.7212 10.9869C5.01456 10.9256 6.24044 10.2217 6.93631 8.99621L6.93977 8.99006Z" fill="black" fill-opacity="0.8"/>
</svg>
