<svg width="24" height="24" viewBox="0 0 24 24" fill="none" xmlns="http://www.w3.org/2000/svg">
<path d="M14.6777 1.25C16.7747 1.25 18.5098 2.91011 18.5098 5V7.00586H22.5V19.75C22.4999 20.8545 21.6045 21.75 20.5 21.75H15.9668V16.5361C15.9668 15.4317 15.0712 14.5344 13.9668 14.5342H7.00098V7.00586H10.8467V5C10.8467 2.91025 12.5809 1.25022 14.6777 1.25ZM13.7617 15.7363C14.314 15.7363 14.7617 16.184 14.7617 16.7363V20.7363C14.7617 21.2886 14.314 21.7363 13.7617 21.7363H2.29688C1.74459 21.7363 1.29688 21.2886 1.29688 20.7363V16.7363C1.29688 16.184 1.74459 15.7363 2.29688 15.7363H13.7617ZM11.6191 7.70117C11.2049 7.70117 10.8691 8.01605 10.8691 8.4043V9.10742C10.8693 9.49554 11.205 9.81055 11.6191 9.81055C12.0333 9.81055 12.369 9.49554 12.3691 9.10742V8.4043C12.3691 8.01605 12.0334 7.70117 11.6191 7.70117ZM17.7871 7.70117C17.3729 7.70117 17.0371 8.01605 17.0371 8.4043V9.10742C17.0373 9.49554 17.373 9.81055 17.7871 9.81055C18.2012 9.81055 18.5369 9.49554 18.5371 9.10742V8.4043C18.5371 8.01605 18.2013 7.70117 17.7871 7.70117ZM14.6777 2.75C13.3712 2.75022 12.3467 3.77631 12.3467 5V7.00586H17.0098V5C17.0098 3.77618 15.9844 2.75 14.6777 2.75Z" fill="black" fill-opacity="0.8"/>
</svg>
