<svg width="24" height="24" viewBox="0 0 24 24" fill="none" xmlns="http://www.w3.org/2000/svg">
<path fill-rule="evenodd" clip-rule="evenodd" d="M19.75 21.6001C21.2688 21.6001 22.5 20.3689 22.5 18.8501V6.10012H18.35V4.85012C18.35 2.8619 16.7382 1.25012 14.75 1.25012C12.7618 1.25012 11.15 2.8619 11.15 4.85012V6.10012H7V13.6001H2.29688C1.74459 13.6001 1.29688 14.0478 1.29688 14.6001V20.6001C1.29688 21.1524 1.74459 21.6001 2.29688 21.6001H19.75ZM14.75 2.45012C13.4245 2.45012 12.35 3.52464 12.35 4.85012V6.10012H17.15V4.85012C17.15 3.52464 16.0755 2.45012 14.75 2.45012ZM11.15 8.85012V7.60012H8.5V13.6001H14.2969C14.8492 13.6001 15.2969 14.0478 15.2969 14.6001V20.1001H19.75C20.4404 20.1001 21 19.5405 21 18.8501V7.60012H18.35V8.85012C18.35 9.18149 18.0814 9.45012 17.75 9.45012C17.4186 9.45012 17.15 9.18149 17.15 8.85012V7.60012H12.35V8.85012C12.35 9.18149 12.0814 9.45012 11.75 9.45012C11.4186 9.45012 11.15 9.18149 11.15 8.85012ZM13.7969 20.1001V15.1001H2.79688V20.1001H13.7969Z" fill="black" fill-opacity="0.8"/>
</svg>
