<svg width="24" height="24" viewBox="0 0 24 24" fill="none" xmlns="http://www.w3.org/2000/svg">
<path d="M7.64948 19.5566C7.29663 20.1695 7.50523 20.9609 8.15816 21.2326C9.6326 21.8461 11.2388 22.1 12.8424 21.9645C14.8732 21.7928 16.8031 21.0047 18.3736 19.7057C19.944 18.4067 21.0801 16.6589 21.6296 14.6963C22.1792 12.7338 22.1159 10.6501 21.4483 8.72452C20.7808 6.7989 19.5408 5.12322 17.8944 3.9219C16.2481 2.72058 14.274 2.05099 12.2365 2.0028C10.199 1.9546 8.19542 2.53011 6.4941 3.65224C5.15061 4.53836 4.04626 5.73193 3.26796 7.12644C2.9233 7.74397 3.24928 8.49465 3.90576 8.75762C4.56225 9.0206 5.29877 8.69356 5.67031 8.09182C6.23603 7.17559 6.99678 6.38858 7.90416 5.7901C9.16977 4.95535 10.6602 4.52723 12.1759 4.56308C13.6916 4.59893 15.1601 5.09704 16.3849 5.9907C17.6096 6.88436 18.532 8.1309 19.0286 9.56337C19.5252 10.9958 19.5723 12.5459 19.1635 14.0058C18.7547 15.4658 17.9096 16.766 16.7413 17.7323C15.573 18.6986 14.1374 19.2848 12.6267 19.4126C11.5436 19.5041 10.4589 19.3569 9.4475 18.9874C8.78323 18.7447 8.00233 18.9437 7.64948 19.5566Z" fill="black" fill-opacity="0.8"/>
</svg>
