<svg width="24" height="24" viewBox="0 0 24 24" fill="none" xmlns="http://www.w3.org/2000/svg">
<path fill-rule="evenodd" clip-rule="evenodd" d="M8.11111 4.94446C5.28832 4.94446 3 7.23278 3 10.0556C3 13.1387 5.07 15.1667 7.60209 15.1667H8.60209V16.1667C8.60209 16.8011 8.5997 17.3487 8.596 17.8164L11.6243 15.1667H15.8889C18.7117 15.1667 21 12.8784 21 10.0556C21 7.23278 18.7117 4.94446 15.8889 4.94446H8.11111ZM6.55653 20.0114L6.55685 20.0034L6.5582 19.9672C6.5594 19.934 6.56115 19.8825 6.56327 19.8115C6.56752 19.6694 6.57324 19.4493 6.579 19.1415C6.58775 18.6729 6.59656 18.0013 6.60026 17.0926C3.34122 16.6028 1 13.7373 1 10.0556C1 6.12821 4.18375 2.94446 8.11111 2.94446H15.8889C19.8162 2.94446 23 6.12821 23 10.0556C23 13.9829 19.8162 17.1667 15.8889 17.1667H12.3757L6.457 22.3456L6.55646 20.013L6.55653 20.0114Z" fill="black" fill-opacity="0.8"/>
<path d="M8.11111 11.1667C8.72476 11.1667 9.22222 10.6692 9.22222 10.0556C9.22222 9.44192 8.72476 8.94446 8.11111 8.94446C7.49746 8.94446 7 9.44192 7 10.0556C7 10.6692 7.49746 11.1667 8.11111 11.1667Z" fill="black" fill-opacity="0.8"/>
<path d="M12 11.1667C12.6137 11.1667 13.1111 10.6692 13.1111 10.0556C13.1111 9.44192 12.6137 8.94446 12 8.94446C11.3864 8.94446 10.8889 9.44192 10.8889 10.0556C10.8889 10.6692 11.3864 11.1667 12 11.1667Z" fill="black" fill-opacity="0.8"/>
<path d="M15.8889 11.1667C16.5026 11.1667 17.0001 10.6692 17.0001 10.0556C17.0001 9.44192 16.5026 8.94446 15.8889 8.94446C15.2753 8.94446 14.7778 9.44192 14.7778 10.0556C14.7778 10.6692 15.2753 11.1667 15.8889 11.1667Z" fill="black" fill-opacity="0.8"/>
</svg>
