<svg width="24" height="24" viewBox="0 0 24 24" fill="none" xmlns="http://www.w3.org/2000/svg">
<path fill-rule="evenodd" clip-rule="evenodd" d="M12 21C16.9706 21 21 16.9706 21 12C21 7.02944 16.9706 3 12 3C7.02944 3 3 7.02944 3 12C3 16.9706 7.02944 21 12 21ZM12 23C18.0751 23 23 18.0751 23 12C23 5.92487 18.0751 1 12 1C5.92487 1 1 5.92487 1 12C1 18.0751 5.92487 23 12 23Z" fill="black" fill-opacity="0.8"/>
<path d="M11.093 13.2591L11.093 5.95831L12.9075 5.95831L12.9075 13.2591L11.093 13.2591ZM12.0002 18.0413C11.1734 18.0413 10.5023 17.3711 10.5022 16.5443C10.5022 15.7173 11.1733 15.0462 12.0002 15.0462C12.8271 15.0463 13.4973 15.7174 13.4973 16.5443C13.4972 17.371 12.827 18.0412 12.0002 18.0413Z" fill="black" fill-opacity="0.8"/>
</svg>
