<svg width="24" height="24" viewBox="0 0 24 24" fill="none" xmlns="http://www.w3.org/2000/svg">
<path fill-rule="evenodd" clip-rule="evenodd" d="M12 23C18.0752 23 23 18.0752 23 12C23 5.9248 18.0752 1 12 1C5.9248 1 1 5.9248 1 12C1 18.0752 5.9248 23 12 23Z" fill="#FB8F82"/>
<path d="M11.1504 13.0498L11.1504 5L13.1504 5L13.1504 13.0498L11.1504 13.0498ZM12.1504 19.3223C11.2389 19.322 10.5 18.5825 10.5 17.6709C10.5003 16.7595 11.239 16.0208 12.1504 16.0205C13.062 16.0205 13.8015 16.7594 13.8018 17.6709C13.8018 18.5827 13.0621 19.3223 12.1504 19.3223Z" fill="black" fill-opacity="0.8"/>
</svg>
